<?xml version="1.0" encoding="UTF-8" standalone="no"?>
<!-- Created with Inkscape (http://www.inkscape.org/) -->

<svg
   xmlns:dc="http://purl.org/dc/elements/1.1/"
   xmlns:cc="http://creativecommons.org/ns#"
   xmlns:rdf="http://www.w3.org/1999/02/22-rdf-syntax-ns#"
   xmlns:svg="http://www.w3.org/2000/svg"
   xmlns="http://www.w3.org/2000/svg"
   xmlns:sodipodi="http://sodipodi.sourceforge.net/DTD/sodipodi-0.dtd"
   xmlns:inkscape="http://www.inkscape.org/namespaces/inkscape"
   width="210mm"
   height="297mm"
   viewBox="0 0 744.09448819 1052.3622047"
   id="svg15936"
   version="1.1"
   inkscape:version="0.91 r13725"
   sodipodi:docname="foreground-objects.svg">
  <defs
     id="defs15938" />
  <sodipodi:namedview
     id="base"
     pagecolor="#ffffff"
     bordercolor="#666666"
     borderopacity="1.0"
     inkscape:pageopacity="0.0"
     inkscape:pageshadow="2"
     inkscape:zoom="4.9399808"
     inkscape:cx="130.92013"
     inkscape:cy="953.62625"
     inkscape:document-units="px"
     inkscape:current-layer="layer1"
     showgrid="false"
     inkscape:window-width="1920"
     inkscape:window-height="1056"
     inkscape:window-x="1920"
     inkscape:window-y="24"
     inkscape:window-maximized="1" />
  <metadata
     id="metadata15941">
    <rdf:RDF>
      <cc:Work
         rdf:about="">
        <dc:format>image/svg+xml</dc:format>
        <dc:type
           rdf:resource="http://purl.org/dc/dcmitype/StillImage" />
        <dc:title />
      </cc:Work>
    </rdf:RDF>
  </metadata>
  <g
     inkscape:label="Layer 1"
     inkscape:groupmode="layer"
     id="layer1">
    <rect
       style="opacity:1;fill:#917c6f;fill-opacity:1;stroke:#000000;stroke-width:1;stroke-miterlimit:4;stroke-dasharray:none;stroke-dashoffset:0;stroke-opacity:1"
       id="rect5825"
       width="6.8706999"
       height="40.079082"
       x="64.805168"
       y="77.845863"
       transform="matrix(0.80556249,-0.59251083,0.59251083,0.80556249,0,0)" />
    <path
       id="path6178-6"
       style="fill:#917c6f;fill-rule:evenodd;stroke:#000000;stroke-width:1px;stroke-linecap:butt;stroke-linejoin:miter;stroke-opacity:1"
       d="M 126.02401,141.14897 38.14073,141.14897 C 40.08199,121.87267 40.55097,96.33917 37.8882,54.02333 82.08238,55.28602 127.2867,52.5081 127.2867,52.5081 Z"
       inkscape:connector-curvature="0"
       sodipodi:nodetypes="ccccc" />
    <rect
       style="opacity:1;fill:#ffffff;fill-opacity:0.54773865;stroke:#000000;stroke-width:0.7996313;stroke-miterlimit:4;stroke-dasharray:none;stroke-dashoffset:0;stroke-opacity:1"
       id="rect5771"
       width="77.270203"
       height="19.968731"
       x="88.754227"
       y="-32.913364"
       transform="matrix(0.5,0.8660254,-0.8660254,0.5,0,0)" />
    <g
       transform="matrix(0.06430606,0.11138136,-0.11138136,0.06430606,87.867,67.7234)"
       style="clip-rule:evenodd;fill:#ab3626;fill-rule:evenodd"
       id="g4">
      <path
         inkscape:connector-curvature="0"
         d="M 373.92,95.952 C 373.839,97.058 373.83,97.532 373.819,98.752 373.816,99.092 373.912,99.464 373.877,100.168 373.81,101.486 373.928,103.188 373.97,104.98 374.015,106.797 373.817,108.796 373.854,110.657 373.912,113.417 374.04,116.776 373.981,119.948 373.82,128.657 374.085,140.005 374.407,149.352 374.426,149.895 374.374,150.534 374.392,151.089 374.646,158.382 374.186,166.644 374.338,173.942 374.356,174.811 374.477,175.75 374.494,176.589 374.504,177.048 374.561,177.386 374.571,177.953 374.647,182.27 374.95,185.473 374.875,189.716 374.839,191.809 375.737,194.151 374.968,194.795 374.109,195.514 372.069,194.49 371.363,194.364 370.814,194.266 370.06,194.404 369.493,194.348 368.793,194.28 368.245,194.078 367.624,194.065 366.777,194.047 365.94,194.29 365.083,194.312 364.033,194.338 362.978,194.158 361.877,194.152 359.71,194.139 357.051,193.974 354.394,194.09 354.067,194.105 353.659,194.155 353.324,194.215 353.049,194.263 352.68,194.454 352.386,194.475 350.652,194.598 349.576,193.959 347.317,194.363 345.776,193.957 344.79,194.071 343.169,194.132 342.342,194.162 341.418,194.063 340.631,194.111 339.826,194.161 339.083,194.464 338.356,194.493 336.414,194.571 334.379,194.311 332.343,194.309 331.141,194.309 329.839,194.507 328.598,194.546 326.176,194.621 324.272,194.671 321.648,194.756 319.682,194.819 317.859,194.607 316.301,195.113 309.591,195.204 300.621,194.854 292.777,195.321 290.488,195.456 288.094,195.182 285.829,195.263 283.965,195.329 281.564,195.163 280.081,195.483 278.89,195.739 277.151,195.355 275.804,195.448 274.241,195.556 272.447,196.015 270.862,195.273 270.693,194.224 270.747,193.15 270.755,192.065 270.764,191.023 271.044,190.024 271.047,188.994 271.05,188.321 270.932,187.655 270.931,186.988 270.925,185.664 270.95,184.145 270.968,182.445 270.977,181.704 271.116,181.017 271.118,180.307 271.12,179.953 270.88,179.595 270.86,179.235 270.834,178.769 271.116,178.269 271.139,177.769 271.163,177.251 271.02,176.667 271.019,176.164 271.005,172.353 271.191,167.127 271.133,162.4 271.125,161.846 270.983,161.218 271.013,160.662 271.034,160.25 271.286,159.87 271.289,159.461 271.302,158.444 271.048,157.412 271.048,156.385 271.05,150.304 271.016,143.992 271.069,137.81 271.076,136.972 270.979,136.095 270.955,135.27 270.934,134.455 270.705,133.639 270.708,132.863 270.71,132.333 270.989,131.793 270.988,131.261 270.989,130.539 270.631,129.741 270.607,128.985 270.591,128.553 270.745,127.997 270.752,127.517 270.852,121.669 270.341,116.343 270.35,111.476 270.36,106.288 269.745,101.029 269.806,96.504 271.103,95.321 272.754,95.97 274.22,96.005 274.682,96.016 275.236,95.866 275.691,95.883 276.118,95.901 276.493,96.145 276.892,96.161 277.342,96.178 277.767,96.014 278.228,96.038 278.632,96.059 279.232,96.064 279.662,96.086 280.85,96.148 282.107,96.317 283.307,96.213 283.677,96.18 284.121,95.971 284.511,95.955 287.542,95.836 290.406,96.304 293.59,96.221 294.082,96.207 294.835,96.199 295.333,96.179 299.442,96.008 304.48,96.154 308.666,96.188 310.328,96.202 311.986,95.96 313.644,96.063 315.233,96.161 316.843,96.346 318.453,96.37 319.485,96.386 320.496,96.182 321.529,96.128 325.728,95.91 330.018,96.649 334.227,95.965 335.816,96.222 337.218,95.974 338.769,96.003 339.257,96.012 339.805,96.253 340.236,96.283 341.247,96.351 342.799,96.07 344.249,96.048 349.404,95.97 354.522,96.332 359.751,95.909 360.457,95.852 361.179,95.556 361.893,95.526 363.952,95.438 366.211,95.86 368.306,95.713 370.206,95.594 371.906,95.395 373.936,95.968 Z M 363.03,102.48 C 360.131,102.605 356.69,102.507 354.341,102.541 352.173,102.573 348.933,102.967 346.857,102.747 346.329,102.691 345.885,102.364 345.39,102.334 344.812,102.298 343.729,102.594 342.983,102.581 340.389,102.536 338.14,102.735 335.63,102.789 334.965,102.803 334.317,102.665 333.627,102.638 332.117,102.579 330.868,102.713 329.349,102.737 328.567,102.749 327.762,102.731 326.944,102.717 323.917,102.666 318.975,102.723 316.387,102.763 315.584,102.777 314.87,102.686 314.116,102.744 313.633,102.782 313.126,102.985 312.644,102.999 311.656,103.028 310.66,102.624 309.706,102.575 308.552,102.514 307.195,102.508 305.964,102.544 304.406,102.589 302.291,102.589 301.419,102.773 298.363,103.418 295.114,102.498 291.93,102.694 290.537,102.781 289.283,102.945 287.921,102.928 285.723,102.903 283.252,102.274 281.372,102.874 280.195,102.845 277.755,102.08 276.83,102.704 275.637,103.507 276.567,106.233 276.655,107.646 276.773,109.56 276.567,111.847 276.601,114.194 276.657,118.147 276.83,120.706 276.786,124.086 276.772,125.148 277.1,126.242 276.629,127.024 277.195,127.656 276.607,128.35 276.613,129.028 276.62,130.116 277.054,131.109 276.986,132.239 276.956,132.744 276.727,133.281 276.706,133.84 276.674,134.745 276.927,135.681 276.95,136.648 277.01,138.973 276.84,141.121 276.897,143.064 276.928,144.118 277.038,145.219 277.003,146.272 276.978,147.086 276.686,147.881 276.718,148.676 276.726,148.906 276.93,148.927 276.979,149.213 277.118,149.99 276.714,150.587 277.23,151.218 277.126,151.689 276.818,152.639 276.813,153.219 276.805,154.256 277.191,155.374 277.187,156.429 277.184,157.628 276.988,158.868 277.025,160.036 277.039,160.426 277.257,160.853 277.283,161.241 277.502,164.653 276.78,168.211 277.326,172.067 276.897,173.095 277.152,174.192 277.297,175.675 277.068,175.935 277.137,176.5 276.888,176.741 277.48,178.387 276.944,180.648 276.97,182.888 276.995,184.986 276.91,187.048 277.322,188.906 281.102,189.213 284.893,188.661 288.686,188.465 292.65,188.26 295.86,188.925 299.776,188.556 306.777,187.898 314.088,188.46 321.159,188.465 323.041,188.466 324.967,188.181 326.909,188.112 329.593,188.015 332.662,187.928 334.798,187.775 338.727,187.493 342.546,187.847 346.535,187.578 348.247,187.462 350.078,187.367 351.771,187.38 355.325,187.409 358.792,187.279 362.198,187.198 363.955,187.158 366.264,187.307 368.017,187.071 368.388,184.34 367.9,182.17 368.152,179.585 368.192,179.17 367.989,178.465 368.02,178.026 368.166,175.942 367.918,174.02 367.937,171.744 367.955,169.674 368.041,167.545 368.124,165.464 368.216,163.144 368.094,160.847 368.047,158.515 367.952,153.636 367.978,147.916 367.901,143.68 367.898,143.44 367.971,143.326 367.95,143.061 367.932,142.825 367.788,142.46 367.781,142.209 367.75,141.127 367.901,139.964 367.941,138.869 368.059,135.718 367.793,132.736 367.751,129.514 367.738,128.424 367.523,127.352 367.511,126.304 367.5,125.344 367.615,124.432 367.534,123.498 367.434,122.336 367.509,121.265 367.429,120.156 367.395,119.689 367.187,119.277 367.172,118.818 367.109,116.763 367.153,115.218 367.081,113.471 366.99,111.183 366.968,108.693 367.009,106.121 367.028,104.969 367.062,103.758 366.771,102.644 365.561,102.204 363.991,102.424 363.041,102.464 Z"
         id="path6" />
      <path
         inkscape:connector-curvature="0"
         d="M 167.17,95.925 C 167.62,96.274 166.47,96.242 167.17,95.925 Z"
         id="path8" />
      <path
         inkscape:connector-curvature="0"
         d="M 325.01,109.92 C 325.729,111.388 324.66,113.273 325.369,114.868 326.153,115.339 327.236,115.086 328.04,115.157 328.837,115.227 329.632,115.599 330.442,115.711 330.828,115.764 331.287,115.645 331.644,115.721 332.207,115.841 332.771,116.248 333.374,116.403 334.201,116.616 335.039,116.565 335.777,116.824 336.916,117.224 338.082,117.965 339.237,118.456 340.538,119.007 341.912,119.27 342.836,119.822 343.145,120.008 343.239,120.448 343.497,120.629 343.828,120.863 344.378,120.883 344.696,121.041 345.127,121.254 345.284,121.616 345.76,121.584 346.563,122.428 347.83,122.817 348.413,123.877 351.241,125.469 353.175,127.941 355.041,130.48 356.716,132.078 357.72,134.192 359.004,136.126 359.698,137.169 360.255,138.096 360.715,139.213 360.836,139.503 360.84,139.874 360.976,140.151 361.248,140.707 361.409,140.944 361.63,141.627 361.979,142.688 362.643,143.58 362.676,144.71 361.053,144.835 361.118,143.514 360.152,142.817 359.855,142.603 359.048,142.44 358.421,142.135 357.9,141.882 357.405,141.445 356.957,141.322 355.603,140.95 354.102,141.125 352.947,141.289 351.348,141.516 349.704,141.454 348.532,142.054 348.011,142.32 347.02,142.664 346.52,142.973 345.285,143.735 344.591,144.962 343.426,145.353 342.109,144.704 341.209,143.645 340.106,142.787 338.994,142.877 338.429,141.713 337.31,141.427 336.893,141.32 336.358,141.448 335.841,141.415 335.049,141.364 334.26,141.02 333.573,140.996 332.435,140.954 329.95,141.298 328.755,141.759 327.573,142.213 326.123,143.159 325.394,144.136 325.521,145.273 325.549,146.715 325.625,148.415 325.725,150.542 325.229,152.658 325.437,155.229 325.518,156.242 325.706,157.625 325.673,158.973 325.662,159.426 325.417,159.852 325.395,160.307 325.355,161.084 325.613,162.03 325.642,162.848 325.654,163.221 325.479,163.573 325.498,163.916 325.54,164.647 325.787,165.322 325.747,166.056 325.699,166.991 325.232,167.556 325.727,168.46 325.341,170.327 325.83,172.341 325.547,174.206 325.529,174.32 325.268,174.328 325.276,174.604 325.276,174.62 325.538,175.026 325.541,175.007 325.387,176.138 324.724,177.088 324.98,178.211 323.737,178.634 324.112,180.345 323.35,181.271 322.029,182.876 318.211,183.33 315.717,183.212 314.786,182.538 313.635,182.079 312.658,181.45 312.118,180.769 311.7,179.917 311.208,179.033 310.859,178.41 310.644,177.95 310.288,177.022 309.517,175.012 309.242,171.738 309.417,169.264 310.619,168.777 311.759,168.937 313.158,169.16 313.584,169.932 313.204,170.802 313.272,171.701 313.319,172.31 313.649,172.928 313.657,173.575 313.671,174.515 313.49,174.698 313.907,175.716 314.726,177.717 316.198,179.976 319.227,178.7 321.811,177.612 321.585,170.787 321.725,167.361 321.811,165.307 321.679,163.714 321.775,161.347 321.889,158.561 321.23,156.086 321.834,154.265 321.76,153.808 321.473,153.559 321.443,153.058 321.543,152.141 321.778,151.429 321.731,150.521 321.712,150.152 321.482,149.748 321.473,149.316 321.457,148.354 321.648,147.3 321.633,146.244 321.622,145.559 321.769,144.155 321.521,143.57 321.239,142.897 318.917,141.715 317.796,141.535 317.487,141.485 317.128,141.659 316.728,141.66 314.106,141.66 311.19,140.829 308.842,141.595 307.571,142.009 306.592,143.405 305.218,143.57 304.822,143.908 304.563,144.452 304.138,144.898 303.808,145.244 303.135,145.93 302.792,145.956 301.638,146.045 300.293,143.453 299.207,143.12 297.937,143.068 297.069,141.85 295.744,141.621 292.546,141.068 288.756,141.646 286.111,142.878 285.684,143.078 285.132,143.378 284.77,143.669 284.207,144.122 283.903,145.111 283.156,144.859 282.661,144.518 283.027,143.835 283.169,143.389 283.636,141.904 284.822,140.211 284.948,138.326 285.794,136.805 286.909,135.559 287.391,133.669 288.953,132.111 289.794,130.039 291.175,128.354 291.626,127.806 292.446,127.253 293.061,126.633 294.278,125.404 295.185,124.442 296.695,123.456 296.89,123.328 297.236,123.3 297.367,123.194 297.753,122.879 297.923,122.301 298.311,121.999 298.808,121.612 299.653,121.253 300.326,120.813 303.444,118.783 307.255,117.355 311.324,115.959 313.205,115.313 316.408,114.686 318.82,114.551 319.536,114.51 320.267,114.857 320.959,114.434 321.571,113.111 321.081,111.732 320.992,110.426 322.252,109.686 323.432,110.376 325.012,109.946 Z M 318.72,127.64 C 319.026,127.681 319.223,127.613 319.257,127.378 318.947,127.338 318.747,127.408 318.717,127.638 Z"
         id="path10" />
      <path
         inkscape:connector-curvature="0"
         d="M 213.55,110.74 C 213.64,110.74 213.728,110.741 213.818,110.742 213.818,110.831 213.817,110.921 213.816,111.01 213.726,111.01 213.638,111.009 213.548,111.008 L 213.548,110.738 Z"
         id="path12" />
      <path
         inkscape:connector-curvature="0"
         d="M 172.21,197.27 C 172.478,197.227 172.628,197.301 172.607,197.541 172.474,197.54 172.339,197.539 172.207,197.538 L 172.207,197.268 Z"
         id="path14" />
      <path
         inkscape:connector-curvature="0"
         d="M 215.79,98.464 C 216.26,97.894 215.931,97.634 216.069,97.129 216.675,96.939 217.043,96.404 217.294,95.851 218.849,95.522 220.556,95.818 222.284,95.716 222.991,95.675 224.038,95.688 225.033,95.734 228.636,95.898 232.706,96.121 236.659,95.964 238.481,95.892 241.372,96.132 243.874,96.156 246.992,96.186 249.937,95.576 252.694,96.095 252.835,96.399 252.992,96.684 253.222,96.901 253.227,99.571 253.076,102.637 252.881,105.852 252.869,106.047 253.03,106.268 253.008,106.521 252.991,106.724 252.738,106.883 252.737,106.919 252.729,107.653 253.051,108.404 253.12,109.194 253.587,114.695 252.895,120.721 253.38,126.302 253.477,127.425 253.328,128.624 253.352,129.776 253.367,130.582 253.581,131.404 253.598,132.185 253.728,137.318 253.295,142.627 253.333,148.219 253.357,151.814 253.764,155.636 253.642,159.313 253.567,161.574 253.641,164.044 253.584,166.396 253.499,169.81 253.896,173.705 253.896,177.358 253.895,180.101 253.632,182.701 253.966,184.976 254.148,186.22 253.489,187.511 254.069,188.585 253.856,188.818 253.885,189.295 253.795,189.652 253.711,190.131 253.944,190.299 254.053,190.59 253.361,192.151 254.952,195.308 252.938,196.327 250.347,196.033 246.401,195.808 243.183,196.113 242.934,196.137 242.558,196.372 242.513,196.374 241.615,196.413 240.781,196.141 239.976,196.221 239.564,196.261 239.182,196.462 238.77,196.477 237.479,196.525 236.157,196.146 234.897,196.179 233.577,196.212 232.303,196.621 231.018,196.681 227.646,196.836 223.85,195.832 220.994,196.865 219.971,195.936 218.798,196.975 217.384,197.102 216.701,197.164 216.057,196.959 215.38,196.952 213.777,196.935 212.174,197.261 210.84,196.647 210.365,196.436 210.754,197.1 210.436,197.044 205.948,196.999 201.164,197.563 196.268,197.328 193.864,197.213 190.997,197.52 187.711,197.525 185.097,197.528 182.512,197.889 180.092,197.863 178.602,197.847 174.524,197.485 173.548,196.73 170.514,195.825 171.707,195.944 168.618,194.788 167.665,194.432 166.92,193.679 166.004,193.444 165.423,193.295 163.52,192.546 162.898,192.375 162.398,192.238 163.362,192.555 162.793,192.771 162.562,192.94 161.909,192.603 161.897,192.995 162.539,193.955 163.152,193.584 163.952,194.388 165.626,194.169 168.035,195.127 169.418,196.036 169.406,196.519 168.712,196.308 168.479,196.564 169.389,197.475 170.024,195.709 171.152,196.452 171,196.612 170.768,196.691 170.88,197.118 170.458,197.158 170.631,197.028 169.812,196.976 169.371,197.492 169.018,197.381 168.338,197.498 167.907,197.433 168.324,197.366 167.939,197.227 167.462,197.056 166.281,197.443 166.34,196.679 165.823,197.106 164.945,197.503 164.063,197.328 163.429,197.203 163.137,196.516 162.465,196.513 162.446,196.102 162.745,195.731 162.475,195.311 162.197,195.024 161.953,195.462 161.672,195.572 161.55,196.222 162.116,196.195 162.197,196.645 161.664,196.96 162.218,197.53 162.184,198.115 159.892,198.546 157.797,197.95 155.297,198.325 154.405,198.459 152.113,198.494 150.956,198.423 150.554,198.399 150.25,198.508 149.922,198.325 148.984,198.513 147.974,198.513 146.88,198.408 146.942,197.804 146.975,197.823 146.953,197.588 146.905,197.077 147.23,196.575 147.233,195.987 147.24,194.868 147.129,194.658 147.087,193.199 146.915,190.828 147.292,189.409 147.301,187.701 147.303,187.406 147.088,187.199 147.04,186.897 146.755,185.072 147.282,182.495 147.222,181.018 147.166,179.629 146.882,178.118 147.389,176.878 146.838,176.296 147.066,175.514 147.141,174.603 147.334,172.263 147.099,169.827 147.202,167.252 147.296,164.915 146.798,162.438 147.258,160.438 146.819,154.532 146.762,148.798 147.003,142.796 147.058,141.42 147.181,140.439 147.03,139.455 147.014,139.352 146.767,139.088 146.766,139.052 146.757,138.861 147.028,138.608 147.038,138.386 147.06,137.92 146.737,136.915 146.788,136.246 146.811,135.938 147.052,135.614 147.063,135.313 147.108,134.032 146.749,132.803 146.692,131.568 146.525,131.039 147.086,131.248 147.099,130.903 146.996,130.518 146.833,130.191 146.706,129.83 147.062,128.42 146.269,126.226 146.881,125.021 146.631,124.118 146.575,122.951 146.639,121.946 146.655,121.69 146.91,121.312 146.912,121.279 146.914,121.139 146.656,121.18 146.646,121.009 146.609,120.367 146.645,118.615 146.672,117.803 146.727,116.177 147.01,114.491 146.446,112.856 146.821,112.698 146.563,111.898 146.856,111.656 146.321,110.431 146.956,109.115 146.488,107.778 146.485,107.37 146.614,107.098 146.894,106.979 146.329,106.558 146.313,105.38 146.644,104.972 145.895,102.871 146.707,99.602 145.9,97.884 146.369,97.336 145.757,96.937 146.177,96.683 146.035,96.098 145.752,96.338 145.514,96.01 146.211,95.129 147.235,95.578 148.19,95.63 153.99,95.952 157.857,95.388 160.568,95.678 160.877,95.799 160.599,95.386 161.152,95.604 161.82,95.565 161.947,96.059 162.755,95.884 162.985,95.967 163.089,96.316 163.367,96.353 164.753,96.666 165.278,97.048 166.225,96.314 166.575,96.796 167.039,96.711 167.076,97.23 168.513,98.017 167.87,96.207 169.161,96.873 169.556,96.556 169.64,95.922 170.106,95.679 170.898,95.902 171.352,95.681 172.245,95.697 172.4,96.243 172.491,96.65 172.905,96.638 172.127,97.064 173.288,98.384 172.225,98.102 172.741,98.863 179.03,99.256 180.032,99.703 179.85,100.147 173.324,100.747 173.134,101.183 173.382,101.825 174.591,101.518 174.999,102 174.39,102.897 173.768,102.273 172.993,102.251 170.856,102.191 168.325,102.202 166.041,102.461 165.56,102.516 165.057,102.719 164.569,102.716 164.185,102.713 163.881,102.486 163.502,102.44 162.786,102.354 161.983,102.621 161.364,102.289 159.241,103.722 154.592,101.044 152.538,103.152 152.701,107.061 152.752,111.172 152.838,115.315 152.92,119.214 152.716,122.162 152.88,126.542 152.911,127.395 153.18,128.29 153.127,128.949 153.099,129.298 152.862,129.553 152.852,129.882 152.836,130.438 153.083,130.948 153.106,131.488 153.199,133.626 152.987,135.799 153.053,137.902 153.095,139.217 153.207,140.589 153.154,141.912 153.04,144.739 153.208,147.38 153.22,150.198 153.234,153.784 153.074,157.359 153.131,161.023 153.243,168.318 153.462,175.719 153.217,182.94 153.12,185.789 153.268,188.585 153.281,191.36 154.485,191.405 156.378,191.516 158.091,191.4 159.076,191.334 160.006,191.013 160.901,191.022 161.321,191.027 161.802,191.189 162.236,191.168 162.565,191.151 162.917,190.936 163.307,190.91 163.635,190.887 164.054,191.089 164.375,191.052 165.57,190.916 166.793,190.329 167.989,190.147 168.941,190.001 169.8,190.195 170.797,190.17 170.809,190.63 171.834,190.622 171.303,190.531 172.158,191.048 173.306,190.918 174.668,190.736 174.084,190.206 172.723,191.234 172.267,190.182 173.516,190.286 175.829,189.661 176.672,190.752 181.613,190.932 186.272,190.461 190.839,190.602 195.211,190.736 200.096,190.174 205.141,190.318 207.094,190.375 209.361,190.369 211.289,190.102 212.998,189.864 215.5,189.955 217.307,189.75 217.587,189.718 218.295,189.928 218.642,189.895 218.734,189.885 218.912,189.629 218.912,189.629 219.187,189.648 219.454,189.926 220.112,189.907 220.519,189.895 220.762,189.689 221.183,189.648 222.448,189.527 223.797,190.043 225.192,189.815 226.28,189.638 227.927,189.612 229.469,189.583 233.441,189.506 237.575,189.51 241.63,189.55 243.347,189.567 245.052,188.97 246.709,189.592 246.817,189.567 246.843,189.459 246.977,189.461 247.678,188.748 247.403,187.575 247.401,186.658 247.4,185.604 247.425,184.516 247.427,183.45 247.434,181.03 247.355,178.492 247.354,176.233 247.353,175.528 247.315,174.691 247.373,173.961 247.416,173.396 247.687,172.89 247.654,172.36 247.602,171.549 247.462,170.882 247.54,169.82 247.665,168.142 247.507,166.401 247.45,164.607 247.33,160.862 247.699,156.905 247.544,153.248 247.532,152.958 247.286,152.6 247.284,152.31 247.277,150.712 247.31,149.098 247.324,147.499 247.393,139.006 247.312,130.667 247.001,121.837 246.896,118.857 246.938,115.508 246.674,112.747 246.532,111.242 246.891,109.704 246.846,108.205 246.833,107.781 246.623,107.426 246.588,107 246.471,105.589 247.003,104.128 246.623,102.724 244.848,102.358 242.42,102.292 240.342,102.672 239.816,102.769 239.333,103.07 238.87,103.061 238.484,103.054 238.183,102.737 237.804,102.651 236.124,102.267 233.862,102.52 231.658,102.6 229.117,102.692 226.296,102.749 223.773,102.669 222.13,102.617 220.261,102.174 218.832,102.228 217.345,102.282 216.055,102.909 214.685,102.728 214.116,102.846 214.684,101.846 214.157,101.921 213.625,102.056 214.302,102.442 214.018,102.588 205.719,102.042 200.891,102.275 193.039,102.148 182.094,102.275 186.816,101.722 189.236,100.169 189.292,99.85 186.986,99.353 187.197,98.879 187.699,98.419 195.091,97.246 195.777,97.763 198.983,97.163 183.094,96.733 186.746,96.763 187.718,96.771 212.336,95.757 213.407,95.5 213.71,95.614 213.135,96.319 213.533,96.57 213.799,96.349 213.702,96.583 214.067,96.574 214.593,96.66 214.23,95.842 214.341,95.507 214.7,95.837 215.066,96.184 215.407,95.917 215.723,95.957 215.251,96.272 215.269,96.45 215.015,97.053 215.748,96.686 215.799,96.989 215.699,97.646 215.779,97.72 215.809,98.443 Z M 157.54,96.781 C 157.448,96.418 158.169,96.883 158.077,96.518 157.957,96.235 157.207,96.669 157.537,96.781 Z M 214.19,97.649 C 214.579,97.849 214.586,97.055 214.194,97.248 L 214.194,97.649 Z M 198.55,98.188 C 199.005,98.303 199.171,98.175 199.751,98.332 199.425,98.033 199.189,97.647 198.689,97.521 198.729,97.832 198.669,98.035 198.549,98.188 Z M 213.65,98.58 C 213.71,98.327 213.94,98.247 213.923,97.914 213.79,97.913 213.655,97.912 213.523,97.911 213.483,98.222 213.233,98.485 213.653,98.58 Z M 163.94,98.438 C 163.948,98.671 163.907,98.853 163.801,98.972 164.558,98.694 165.029,99.249 165.274,98.85 164.762,98.939 165.419,98.156 164.879,98.045 164.699,98.31 164.279,98.337 163.939,98.438 Z M 160.33,98.141 C 160.212,98.037 159.947,98.22 159.928,98.271 159.738,98.773 160.588,98.372 160.328,98.141 Z M 213.91,98.982 C 214.298,99.183 214.305,98.388 213.913,98.582 213.923,98.716 213.923,98.85 213.913,98.982 Z M 168.21,98.473 C 167.887,98.525 167.921,98.226 167.543,98.333 167.343,98.735 168.243,98.69 168.213,98.473 Z M 213.37,99.647 C 213.546,99.822 213.866,99.827 213.906,99.518 213.726,99.343 213.406,99.337 213.366,99.647 Z M 213.5,100.18 C 213.588,100.181 213.678,100.181 213.768,100.182 213.768,100.093 213.769,100.004 213.77,99.915 213.68,99.914 213.59,99.914 213.502,99.913 L 213.502,100.182 Z M 214.57,100.59 C 214.571,100.412 214.573,100.235 214.575,100.056 214.442,100.055 214.307,100.054 214.175,100.053 214.125,100.393 214.215,100.623 214.565,100.583 Z M 213.63,101.25 C 213.802,101.258 213.815,101.422 214.03,101.386 214.04,101.157 213.93,101.044 213.767,100.984 213.757,101.114 213.647,101.134 213.627,101.244 Z M 148.94,182.64 C 149.545,182.716 149.815,182.451 149.749,181.845 148.979,181.775 148.729,182.025 148.939,182.645 Z M 218.75,193.77 C 218.771,193.35 218.41,193.308 218.086,193.23 217.946,193.76 218.456,193.65 218.746,193.77 Z M 218.19,196.44 C 218.199,196.359 218.213,196.283 218.327,196.308 218.312,196.145 218.29,195.991 218.061,196.039 218.081,196.199 218.031,196.419 218.191,196.439 Z"
         id="path16" />
      <path
         inkscape:connector-curvature="0"
         d="M 131.22,143.87 C 131.35,144.218 131.65,144.205 131.748,144.676 131.867,145.251 131.505,146.267 131.332,146.409 132.127,147.705 131.459,149.542 131.56,151.221 131.578,151.521 131.817,151.857 131.819,152.159 131.83,153.819 131.83,155.521 131.38,156.833 132.245,157.578 131.53,159.202 131.617,160.577 131.678,161.551 132.46,163.953 131.052,164.314 131.418,164.685 130.927,164.872 130.91,165.248 131.16,165.588 131.379,165.128 131.711,165.388 131.943,168.804 131.555,172.517 131.895,175.547 131.773,175.918 131.721,176.359 131.485,176.613 132.13,178.608 131.583,180.861 131.564,183.161 131.552,184.598 131.83,186.125 131.795,187.573 131.788,187.879 131.572,188.03 131.521,188.373 131.396,189.2 131.833,190.264 131.766,191.181 131.667,192.526 131.667,195.236 131.854,196.661 131.888,196.926 132.029,197.215 132.114,197.465 131.814,197.653 131.854,198.188 131.572,198.396 130.988,198.576 130.84,198.336 130.371,198.119 129.96,198.285 129.664,198.568 129.296,198.778 129.079,198.704 128.701,198.857 128.227,198.769 128.076,198.741 127.715,198.5 127.829,198.499 127.525,198.504 127.18,198.846 126.89,198.892 125.646,199.09 124.093,198.745 122.749,198.724 121.861,198.711 120.889,198.729 120.074,198.969 117.789,198.465 114.219,199.471 112.324,198.905 110.574,199.405 108.741,199.256 106.709,199.126 104.127,198.962 101.09,199.351 98.287,199.458 97.145,199.502 95.903,199.571 94.813,199.43 94.148,199.344 94.534,199.304 93.744,199.421 93.348,199.48 92.922,199.258 92.543,199.277 92.206,199.296 91.904,199.525 91.605,199.537 91.211,199.554 90.759,199.382 90.404,199.393 90.008,199.407 89.683,199.643 89.333,199.651 88.542,199.671 87.722,199.347 86.93,199.364 86.328,199.378 85.664,199.716 85.056,199.749 82.52,199.891 79.303,199.673 76.368,199.945 75.687,200.008 74.86,200.1 74.228,200.061 73.863,200.039 73.399,200.054 73.163,199.651 71.772,200.68 69.146,199.64 67.41,200.405 65.49,199.905 62,200.093 59.393,200.206 55.985,200.353 52.492,200.187 49.637,200.259 49.054,200.274 48.492,200.386 47.764,200.378 44.191,200.334 39.647,200.612 36.003,200.548 35.205,200.534 34.245,200.809 33.462,200.794 32.114,200.769 31.614,200.534 30.391,201.174 29.282,200.636 28.957,200.846 28.098,201.275 27.878,200.633 27.394,201.343 27.712,201.014 25.964,201.121 24.525,201.718 22.196,201.241 22.023,200.881 21.208,201.388 21.297,201.095 20.605,201.07 19.97,200.988 19.429,200.812 19.793,199.11 21.117,196.56 20.577,194.901 20.729,194.562 20.479,194.289 20.688,194.006 19.924,191.979 20.949,190.243 21,188.53 21.019,187.887 20.84,187.128 20.882,186.524 20.899,186.283 21.154,185.877 21.154,185.858 21.155,185.681 20.907,185.303 20.892,185.187 20.729,183.808 21.556,182.328 20.925,181.179 21.163,180.386 21.069,179.258 21.481,178.644 21.161,178.179 21.149,178.139 21.385,176.351 21.217,175.407 21.55,174.711 21.118,174.098 21.735,172.965 20.816,172.138 21.41,171.027 21.486,170.554 21.208,170.619 21.284,170.146 21.385,169.843 20.784,169.177 21.29,169.288 20.953,167.503 21.036,165.432 21.335,163.809 20.687,162.245 21.502,160.062 20.846,158.325 21.246,158.058 20.577,157.15 21.351,157.263 20.98,154.936 20.823,153.867 21.158,152.85 20.832,152.419 20.883,151.731 21.171,151.246 20.972,151 21.036,150.496 20.778,150.307 21.233,149.044 20.832,147.528 20.812,146.164 20.806,145.755 20.982,145.332 20.955,144.963 20.928,144.567 20.673,144.133 20.699,143.758 20.753,142.946 21.013,143.064 20.717,141.619 20.98,140.096 20.809,139.612 21.007,138.682 20.975,138.536 20.742,138.589 20.743,138.412 21.338,136.597 20.676,134.98 20.658,132.532 21.047,130.618 20.69,130.343 20.71,127.583 20.409,126.858 20.59,125.851 20.984,125.317 20.997,124.862 20.3,125.107 20.321,124.643 20.83,123.114 20.6,121.851 20.492,120.234 20.402,119.874 20.515,119.697 20.642,119.555 20.489,119.085 20.401,119.086 20.238,118.628 20.426,118.147 20.191,117.546 20.44,117.125 20.509,116.527 20.317,116.562 20.259,116.088 20.643,115.359 20.119,114.79 20.545,113.818 19.975,113.007 20.565,111.794 20.035,110.874 20.142,110.804 19.986,110.474 20.17,110.481 19.933,110.165 20.077,110.175 19.777,109.669 20.078,108.95 20.302,108.37 19.793,107.798 19.855,107.412 20.08,107.192 20.466,107.136 20.36,106.755 19.697,106.921 19.805,106.329 20.17,106.446 20.054,106.436 20.541,106.164 20.014,106.07 20.544,105.826 19.677,105.659 19.67,105.159 20.623,105.633 20.617,105.132 20.679,104.761 19.887,105.232 19.95,104.859 19.814,103.955 20.523,103.196 19.565,102.986 19.719,102.829 19.72,102.515 19.705,102.185 19.898,101.975 20.354,102.565 20.507,102.05 20.456,101.703 20.482,102.162 19.707,101.918 19.135,101.106 19.948,100.931 19.99,100.049 20.323,99.815 20.361,100.313 20.507,99.723 20.05,98.976 20.026,100.108 19.326,99.509 19.151,99.164 19.533,98.428 19.739,98.042 19.061,97.531 19.31,96.158 18.955,95.897 19.063,95.018 20.217,95.203 20.305,94.304 22.128,93.835 23.56,94.992 25.648,94.482 25.759,94.637 25.822,94.841 25.776,95.15 26.386,95.231 26.61,94.921 27.247,95.029 27.505,95.173 27.428,95.646 27.642,95.835 28.046,95.705 28.096,95.218 28.583,95.173 30.319,95.473 31.875,95.129 33.122,95.88 33.595,95.869 32.841,95.435 33.259,95.479 34.616,95.413 36.205,95.131 37.267,95.646 37.686,95.803 37.594,95.438 37.804,95.384 38.089,95.323 38.269,95.464 38.281,95.674 39.563,95.539 40.031,95.757 41.008,95.677 41.218,95.66 41.466,95.418 41.679,95.416 42.262,95.411 43.047,95.463 43.681,95.565 43.917,95.603 44.39,95.658 44.655,95.673 46.341,95.77 47.861,95.359 49.564,95.345 50.377,95.339 51.284,95.616 52.102,95.634 53.124,95.657 54.109,95.312 54.91,95.39 55.18,95.417 55.565,95.394 55.709,95.797 56.103,95.674 56.696,95.437 58.045,95.538 58.518,95.313 59.271,95.416 59.852,95.698 60.267,95.794 59.212,96.571 60.646,96.64 61.005,96.27 60.308,96.195 59.982,96.1 60.126,95.542 61.047,95.699 61.722,95.713 62.208,95.722 62.953,95.731 62.923,95.99 66.808,95.055 71.506,95.558 76.557,95.702 76.485,95.808 76.623,95.825 76.627,96.009 77.134,95.841 76.605,95.76 77.092,95.571 78.97,95.243 80.8,95.6 82.571,95.616 83.646,95.627 84.627,95.389 85.645,95.509 86.63,95.623 87.561,95.736 88.733,95.671 88.931,95.659 89.485,95.572 89.653,95.542 90.066,95.465 90.719,95.538 91.123,95.554 92.332,95.602 93.336,95.459 94.465,95.447 94.779,95.444 95.86,95.765 96.468,95.731 96.699,95.719 96.921,95.504 97.137,95.47 98.814,95.21 100.209,95.719 101.817,95.637 102.085,95.625 102.655,95.543 102.883,95.517 103.643,95.431 104.066,95.637 104.852,95.637 105.167,95.637 105.493,95.596 105.823,95.541 107.027,95.338 108.773,95.421 110.101,95.442 113.273,95.494 116.907,95.463 120.391,95.527 123.113,95.578 125.889,95.475 129.267,95.502 130.022,95.508 130.529,95.537 131.21,96.018 131.813,96.742 131.444,97.573 131.058,98.289 131.568,99.403 130.579,100.838 131.163,101.631 130.321,103.181 131.524,104.555 130.861,105.904 131.398,107.435 131.129,109.794 131.08,111.787 131.614,112.535 131.652,114.539 131.051,115.261 131.428,117.466 131.279,119.692 131.263,121.945 131.251,123.583 131.519,125.249 131.49,126.891 131.484,127.206 131.243,127.357 131.216,127.691 131.159,128.393 131.496,129.338 131.462,130.233 131.416,131.466 131.588,133.016 131.562,134.376 131.547,135.136 131.147,135.907 131.678,136.515 131.319,137.116 131.718,137.767 131.264,138.116 131.328,138.45 131.513,138.667 131.659,138.921 131.435,139.278 131.088,139.508 130.849,139.849 131.185,140.237 130.985,140.082 130.844,140.518 130.934,140.898 131.615,140.069 131.647,140.39 131.227,141.48 132.017,143.33 131.167,143.87 Z M 126.94,96.395 C 127.345,96.439 127.735,96.899 128.142,96.539 128.102,95.97 127.062,95.779 126.942,96.395 Z M 24.84,95.687 C 24.943,95.718 24.994,95.801 24.97,95.956 25.389,96.023 25.517,95.795 25.641,95.56 25.168,95.674 24.957,95.211 24.84,95.687 Z M 53.973,95.66 C 53.283,95.977 54.431,96.009 53.973,95.66 Z M 82.836,96.031 C 82.819,96.284 82.394,96.121 82.432,96.429 83.016,96.662 83.867,96.125 84.838,96.316 84.465,95.581 83.589,96.443 82.836,96.031 Z M 109.559,96.385 C 109.795,96.357 110.227,96.526 110.096,96.122 109.846,96.139 109.646,96.207 109.556,96.385 Z M 22.834,95.805 C 22.555,95.725 22.455,95.47 22.034,95.53 21.753,96.085 22.759,96.039 22.834,95.805 Z M 22.968,95.672 C 22.991,96.221 24.172,96.677 24.302,95.95 23.88,95.666 23.554,95.492 22.968,95.672 Z M 73.746,96.358 C 73.798,95.953 73.313,96.077 73.081,95.951 72.907,96.476 73.393,96.352 73.746,96.358 Z M 75.082,96.369 C 75.171,96.37 75.26,96.37 75.349,96.371 75.5,96.179 75.496,96.046 75.219,95.969 75.223,96.153 75.154,96.262 75.082,96.369 Z M 82.033,96.159 C 81.528,95.785 81.442,96.644 82.033,96.159 Z M 107.419,96.635 C 107.381,96.372 107.603,96.371 107.69,96.236 107.496,96.308 107.001,96.074 107.021,96.364 107.211,96.398 107.251,96.586 107.421,96.635 Z M 111.299,96.535 C 111.387,96.535 111.476,96.536 111.566,96.537 111.776,96.209 111.114,96.14 111.166,96.399 111.246,96.408 111.316,96.42 111.296,96.535 Z M 55.171,96.205 C 55.613,96.406 56.73,96.767 56.91,96.087 56.219,95.836 55.696,95.966 55.171,96.205 Z M 65.997,96.161 C 65.674,96.212 65.708,95.914 65.33,96.021 65.196,96.511 65.981,96.558 65.997,96.161 Z M 130.269,96.824 C 130.535,96.827 130.436,97.191 130.802,97.095 130.846,96.915 130.994,96.841 130.94,96.561 130.7,96.634 130.39,96.626 130.27,96.824 Z M 20.959,95.79 C 20.103,95.628 20.662,96.195 20.959,95.79 Z M 58.64,96.367 C 58.646,96.741 59.511,96.211 59.043,96.104 59.006,96.311 58.749,96.193 58.642,96.101 58.641,96.188 58.641,96.278 58.64,96.367 Z M 66.792,96.434 C 67.124,96.457 67.44,96.465 67.462,96.174 67.131,96.15 66.814,96.142 66.792,96.434 Z M 70.402,96.197 C 70.09,96.195 69.778,96.192 69.466,96.19 69.358,96.812 70.282,96.493 70.402,96.197 Z M 72.672,96.349 C 72.397,96.054 72.239,96.463 72.005,96.21 71.951,96.624 72.645,96.759 72.672,96.349 Z M 77.218,96.253 C 76.995,96.252 76.611,96.258 76.388,96.256 76.253,96.793 77.343,96.792 77.218,96.253 Z M 80.557,96.414 C 80.581,96.195 79.736,96.188 79.755,96.407 79.972,96.418 80.59,96.985 80.557,96.414 Z M 38.06,96.331 C 38.327,96.388 39.048,96.67 39.262,96.341 38.891,96.297 38.267,95.741 38.06,96.331 Z M 61.846,96.527 62.248,96.53 C 62.267,96.29 62.118,96.217 61.848,96.259 61.848,96.349 61.847,96.438 61.846,96.527 Z M 63.985,96.544 C 63.641,96.686 63.351,96.133 63.183,96.538 63.579,96.507 63.837,97.072 63.985,96.544 Z M 20.149,96.852 C 20.371,96.854 20.594,96.856 20.816,96.857 20.817,96.723 20.818,96.589 20.819,96.456 20.4,96.389 20.272,96.618 20.149,96.852 Z M 21.083,96.993 C 21.018,97.41 21.364,97.422 21.748,97.399 21.749,97.221 21.751,97.044 21.752,96.865 21.374,96.751 21.404,97.05 21.083,96.993 Z M 64.506,98.153 C 64.755,98.136 64.953,98.069 65.043,97.89 64.739,97.85 64.539,97.918 64.506,98.153 Z M 94.437,98.667 C 94.667,98.676 94.781,98.567 94.84,98.403 94.63,98.414 94.377,98.38 94.437,98.667 Z M 113.675,98.958 C 113.764,98.959 113.853,98.959 113.942,98.96 113.943,98.872 113.943,98.783 113.944,98.694 113.855,98.693 113.766,98.693 113.677,98.692 L 113.677,98.958 Z M 53.542,98.731 C 53.851,98.692 53.688,99.118 53.94,99.135 53.912,98.881 54.092,98.84 54.078,98.601 53.902,98.426 53.582,98.421 53.542,98.731 Z M 62.092,99.203 C 62.543,98.883 62.727,99.699 63.159,99.345 63.131,98.931 62.689,98.924 62.362,98.804 62.328,98.993 62.141,99.026 62.092,99.203 Z M 59.82,99.184 C 60.049,99.192 60.162,99.084 60.223,98.92 60.013,98.93 59.76,98.897 59.82,99.184 Z M 19.862,99.122 C 19.951,99.122 20.04,99.123 20.13,99.124 20.138,98.953 20.302,98.939 20.267,98.724 20.134,98.723 20,98.722 19.866,98.721 19.865,98.854 19.863,98.987 19.862,99.122 Z M 26.007,99.439 C 26.518,99.463 26.98,99.439 27.212,99.182 26.782,99.297 27.032,98.74 26.681,98.777 26.978,99.529 25.861,98.842 26.007,99.439 Z M 44.05,99.321 C 44.272,99.323 44.495,99.325 44.717,99.326 44.718,99.192 44.719,99.059 44.72,98.925 44.302,98.858 44.174,99.087 44.05,99.321 Z M 60.353,99.321 C 60.353,99.41 60.352,99.499 60.351,99.588 60.678,99.798 60.747,99.138 60.488,99.189 60.479,99.27 60.466,99.347 60.353,99.321 Z M 67.162,100.18 C 67.638,100.079 67.935,99.798 68.369,99.656 67.936,99.818 68.271,99.223 67.837,99.385 67.787,99.827 67.326,99.853 67.162,100.18 Z M 59.548,99.716 C 59.637,99.716 59.726,99.717 59.816,99.718 59.816,99.628 59.817,99.538 59.818,99.45 59.728,99.45 59.639,99.449 59.55,99.448 59.55,99.537 59.549,99.626 59.548,99.716 Z M 29.478,99.868 C 29.638,99.493 30.694,100.028 30.684,99.478 30.302,99.082 29.096,99.508 29.478,99.868 Z M 48.856,99.761 C 48.946,99.762 49.034,99.762 49.123,99.763 49.124,99.675 49.124,99.585 49.125,99.495 49.036,99.494 48.948,99.494 48.858,99.493 48.858,99.583 48.857,99.672 48.856,99.761 Z M 72.642,99.957 C 72.872,99.966 72.986,99.857 73.046,99.693 72.836,99.704 72.583,99.672 72.642,99.957 Z M 58.343,99.973 C 58.538,99.901 59.032,100.135 59.012,99.845 58.844,99.661 58.36,99.633 58.343,99.973 Z M 61.416,100.13 C 61.812,100.129 62.48,100.537 62.619,100.007 62.052,100.177 61.564,99.589 61.416,100.127 Z M 63.287,100.15 C 63.485,100.364 64.048,100.352 63.957,99.888 63.625,99.862 63.402,99.951 63.287,100.15 Z M 61.282,100.26 C 61.111,100.252 61.098,100.088 60.882,100.123 60.67,100.453 61.331,100.523 61.282,100.263 Z M 41.766,100.64 C 41.9,100.641 42.034,100.642 42.167,100.643 42.147,100.486 42.193,100.264 42.037,100.241 42.023,100.451 41.695,100.341 41.766,100.641 Z M 49.517,100.7 C 49.606,100.701 49.696,100.701 49.785,100.702 49.794,100.532 49.957,100.518 49.922,100.302 49.788,100.301 49.654,100.3 49.521,100.299 49.519,100.439 49.518,100.569 49.517,100.699 Z M 50.855,100.58 C 51.023,100.764 51.508,100.792 51.524,100.453 51.355,100.273 50.871,100.243 50.855,100.583 Z M 130.765,101.1 C 129.915,100.94 130.465,101.51 130.765,101.1 Z M 57.127,101.57 C 57.306,101.571 57.484,101.573 57.662,101.574 57.663,101.441 57.664,101.307 57.665,101.173 57.33,101.143 57.245,101.373 57.127,101.573 Z M 57.264,101.17 C 56.998,101.167 57.097,100.804 56.732,100.899 56.63,101.189 57.219,101.449 57.264,101.169 Z M 43.765,101.32 C 43.585,101.277 43.512,101.128 43.232,101.182 43.172,101.682 43.628,101.602 43.765,101.322 Z M 82.115,102.04 C 82.551,102.077 82.759,101.887 82.787,101.511 82.395,101.521 82.033,101.551 82.115,102.041 Z M 103.495,102.08 C 103.849,102.199 104.308,101.761 104.033,101.684 104.073,102.044 103.283,101.554 103.493,102.084 Z M 25.72,101.71 C 26.312,101.739 26.565,101.959 26.659,101.317 26.145,101.197 25.891,101.207 25.72,101.707 Z M 70.223,101.81 C 70.418,101.738 70.911,101.972 70.891,101.682 70.58,101.642 70.318,101.392 70.223,101.812 Z M 82.112,102.31 C 81.932,102.267 81.858,102.118 81.578,102.172 81.361,102.542 82.153,102.542 82.112,102.312 Z M 98.949,102.45 C 98.475,102.518 98.624,101.974 98.151,102.043 97.755,102.372 97.075,102.676 96.409,102.697 96.292,102.7 96.163,102.45 95.876,102.425 95.263,102.373 95.215,102.627 95.21,102.153 94.075,102.215 92.324,102.699 91.603,101.989 91.053,102.014 91.029,102.573 90.395,102.514 89.55,101.942 87.248,102.853 86.523,102.081 85.527,102.638 84.108,102.114 83.043,102.721 82.296,102.311 81.237,102.75 80.508,102.165 80.038,102.361 79.592,102.581 79.034,102.687 79.357,102.21 77.661,102.665 77.166,102.27 76.787,102.29 76.607,102.511 76.228,102.53 76.014,102.255 75.242,102.528 75.027,102.252 73.372,102.814 70.781,102.427 68.876,102.736 68.668,102.139 67.529,103.036 67.143,102.32 66.726,102.589 66.093,102.665 65.673,102.308 65.633,101.954 66.42,102.439 66.211,101.912 65.236,102.508 64.342,102.434 63.268,102.289 61.445,102.041 59.518,102.806 57.922,102.245 53.193,102.902 47.887,102.143 42.552,102.519 42.094,102.616 42.386,101.975 41.887,102.113 41.245,102.635 41.018,102.042 40.282,102.234 39.615,102.113 39.338,102.894 38.811,102.489 38.792,102.218 39.653,101.804 38.951,101.688 38.352,101.981 38.654,102.09 38.543,102.487 36.019,102.119 32.409,102.433 28.969,102.332 28.534,102.744 27.691,102.458 27.313,102.929 27.07,104.095 27.875,105.461 27.018,106.267 27.448,106.154 27.435,106.476 27.549,106.673 27.295,108.766 27.717,111.149 27.633,112.688 27.547,112.959 26.958,112.72 27.094,113.218 27.426,113.201 27.743,113.198 27.761,113.49 27.506,115.85 28.244,117.673 27.581,119.102 27.957,119.307 27.901,119.935 28.106,120.309 28.002,120.518 27.68,120.505 27.701,120.839 27.947,121.923 28.416,124.449 27.529,125.516 28.135,126.158 28.2,127.666 27.771,128.591 27.826,128.801 28.19,128.708 28.034,129.128 27.506,130.444 28.495,132.384 27.865,133.403 28.287,134.026 28.272,135.253 27.846,135.674 28.519,136.34 28.108,137.259 28.094,138.082 28.088,138.438 28.332,138.794 28.352,139.154 28.373,139.544 28.217,139.951 28.208,140.355 28.18,141.671 28.404,143.376 28.044,144.096 28.055,144.571 28.534,144.585 28.436,145.168 28.18,147.188 28.128,149.194 28.118,151.313 28.117,151.61 28.407,152.009 28.377,152.385 28.36,152.606 28.089,152.834 28.104,153.05 28.122,153.301 28.37,153.434 28.366,153.721 28.328,156.159 28.027,158.641 28.576,160.672 28.427,161.863 28.174,163.334 28.276,164.545 28.306,164.905 28.525,165.142 28.536,165.483 28.573,166.668 28.266,167.957 28.372,169.09 28.405,169.443 28.631,169.714 28.632,170.028 28.632,170.402 28.477,170.735 28.49,171.096 28.503,171.45 28.728,171.779 28.748,172.167 28.766,172.52 28.495,172.927 28.471,173.368 28.391,174.792 28.566,176.36 28.704,177.513 28.796,178.282 28.5,179.173 28.549,180.051 28.578,180.564 28.806,181.072 28.805,181.524 28.801,182.19 28.518,182.827 28.521,183.526 28.522,184.071 28.741,184.59 28.775,185.132 28.936,187.769 28.449,190.471 28.574,193.281 37.535,193.208 46.841,193.177 55.839,192.838 56.901,192.797 58.051,192.721 58.781,192.729 63.012,192.771 67.566,192.351 71.212,192.43 72.048,192.449 72.657,192.323 73.352,192.314 73.704,192.309 74.103,192.568 74.418,192.59 77.908,192.829 82.013,191.99 86.048,192.151 86.593,192.172 87.094,192.39 87.65,192.431 89.359,192.56 91.068,192.267 92.729,192.206 94.141,192.153 95.675,192.405 96.474,191.969 98.047,192.594 99.661,191.961 101.284,192.009 101.716,192.022 102.159,192.27 102.618,192.288 103.14,192.308 103.706,192.072 104.224,192.034 107.596,191.786 111.412,191.888 114.917,191.855 115.943,191.845 117.054,191.717 117.991,191.747 118.351,191.758 118.692,191.994 119.058,192.023 120.758,192.161 122.536,191.481 124.271,191.933 124.542,191.671 124.749,191.342 125.079,191.138 125.22,190.443 124.964,189.807 124.962,189.133 124.961,188.861 125.226,188.607 125.235,188.333 125.249,187.964 124.937,187.553 124.978,187.128 125.037,186.519 125.015,186.185 124.99,185.658 124.938,184.533 125.123,183.462 125.151,182.319 125.183,180.98 124.784,179.436 125.45,178.444 124.671,177.063 125.542,175.075 124.954,173.763 125.363,172.867 125.245,171.547 125.115,170.424 125.245,170.118 125.186,170.053 125.521,169.759 124.746,169.267 125.364,168.329 125.406,167.487 125.474,166.133 124.848,164.517 125.31,162.942 125.478,162.511 124.878,162.837 125.047,162.405 125.672,159.056 124.555,155.084 125.401,151.851 124.734,149.639 125.237,146.899 125.195,144.366 125.184,143.645 124.927,142.896 124.945,142.226 124.957,141.783 125.221,141.442 125.222,141.026 125.222,140.744 124.984,140.751 124.958,140.622 124.729,139.494 125.42,138.133 124.852,137.28 125.455,135.943 124.692,134.391 125.152,133.274 124.78,133.182 124.776,132.545 124.759,132.335 124.703,131.655 125.02,130.892 125.043,130.2 125.078,129.156 124.833,128.097 124.801,127.258 124.779,126.704 124.961,126.097 124.948,125.521 124.931,124.708 124.552,123.914 124.567,123.113 124.575,122.72 124.825,122.297 124.845,121.912 124.965,119.502 124.887,117.157 124.501,114.96 124.709,114.768 124.786,114.441 124.775,114.027 124.496,113.231 124.583,112.697 124.793,111.889 124.442,110.935 124.381,109.746 124.821,108.548 124.601,108.278 124.341,108.048 124.295,107.608 124.714,105.728 124.415,104.375 124.337,102.53 123.803,102.039 122.629,102.252 122.198,102.646 121.598,102.223 120.656,102.704 120.06,102.495 119.705,102.371 119.821,102.015 119.396,101.955 118.458,102.646 117.626,102.056 116.32,102.33 115.922,102.28 115.644,102.111 115.388,101.922 115.244,102.045 115.343,102.414 114.984,102.319 114.572,102.414 114.731,101.949 114.318,102.046 112.643,102.542 110.533,102.192 109.101,102.671 108.798,102.438 108.465,102.236 108.171,101.995 105.561,103.015 102.051,101.795 98.965,102.425 Z M 36.545,101.8 C 36.997,101.854 37.117,101.573 37.351,101.405 36.944,101.395 36.472,101.325 36.545,101.805 Z M 73.028,101.96 C 72.461,102.52 73.592,101.41 73.028,101.96 Z M 44.963,101.87 C 45.24,101.791 45.89,102.094 45.768,101.609 45.426,101.619 45.13,101.679 44.963,101.869 Z M 68.081,102.19 C 67.846,102.265 67.297,102.022 67.278,102.317 67.514,102.237 68.062,102.487 68.081,102.187 Z M 24.164,112.25 C 24.394,112.259 24.507,112.149 24.567,111.985 24.357,112.005 24.104,111.975 24.164,112.255 Z M 23.09,112.91 C 23.433,113.019 24.208,113.044 24.296,112.518 23.852,112.468 23.178,112.288 23.09,112.908 Z M 24.254,117.6 C 24.343,117.601 24.433,117.601 24.522,117.602 24.732,117.274 24.071,117.205 24.122,117.464 24.203,117.474 24.279,117.494 24.254,117.604 Z M 23.448,118.13 C 23.678,118.139 23.791,118.031 23.851,117.867 23.641,117.867 23.388,117.837 23.448,118.127 Z M 24.62,121.88 C 25.066,122.29 25.028,121.39 24.62,121.88 Z M 22.708,126.68 C 22.86,127.006 23.339,126.535 22.978,126.414 22.975,126.594 22.743,126.534 22.708,126.684 Z M 27.126,141.95 C 27.147,141.793 27.367,141.649 27.129,141.549 27.109,141.699 26.889,141.849 27.126,141.949 Z M 22.453,173.98 C 22.587,173.981 22.72,173.982 22.854,173.983 22.855,173.849 22.856,173.716 22.857,173.582 22.768,173.581 22.679,173.581 22.59,173.58 22.581,173.75 22.417,173.76 22.453,173.98 Z M 131.333,193.99 C 131.215,193.886 130.95,194.068 130.931,194.119 130.741,194.619 131.591,194.219 131.331,193.989 Z M 82.54,195.99 C 82.775,196.242 82.881,195.884 83.342,195.997 83.288,195.741 83.299,195.421 82.946,195.46 82.904,195.73 82.582,195.72 82.54,195.99 Z M 21.036,199.63 C 21.659,199.863 20.786,199.941 20.764,200.296 21.066,200.786 21.317,200.616 21.832,200.439 21.783,199.931 21.222,199.927 21.573,199.369 21.268,199.319 21.071,199.389 21.036,199.629 Z M 34.532,199.87 C 34.621,199.871 34.71,199.871 34.799,199.872 34.799,199.783 34.8,199.694 34.801,199.605 34.712,199.604 34.623,199.604 34.534,199.603 34.534,199.703 34.533,199.783 34.532,199.873 Z M 54.308,200.17 C 54.442,200.171 54.575,200.172 54.709,200.173 54.71,200.039 54.711,199.905 54.712,199.772 54.578,199.771 54.445,199.77 54.311,199.769 54.31,199.899 54.309,200.039 54.308,200.169 Z"
         id="path18" />
      <path
         inkscape:connector-curvature="0"
         d="M 162.89,111.93 C 163.247,111.872 163.509,111.362 163.828,111.67 163.527,111.105 164.566,111.311 164.638,110.742 164.399,110.421 163.341,111.118 163.3,110.997 163.22,110.147 162.68,109.75 162.244,109.25 163.15,108.677 163.894,109.03 164.378,109.802 164.823,109.673 164.346,109.263 164.786,109.004 166.074,108.937 166.91,109.279 168.258,109.435 168.709,109.445 168.839,109.128 169.064,108.907 170.002,108.91 171.044,108.814 171.465,109.327 173.741,108.447 177.931,109.117 181.357,109.009 182.177,108.983 182.959,108.631 183.628,109.16 181.732,113.881 179.751,118.514 177.767,123.144 177.054,123.228 176.419,123.393 175.892,123.664 175.587,123.522 175.621,123.047 175.095,123.122 174.769,123.354 174.835,123.908 174.416,124.32 174.645,124.919 175.401,124.653 176.017,124.6 176.015,125.177 176.679,125.098 176.676,125.675 176.382,126.507 175.398,127.585 175.985,128.477 176.818,128.2 177.267,127.533 177.603,126.752 178.386,126.56 178.775,125.967 179.483,125.698 179.383,125.193 179.65,125.06 179.626,124.63 183.381,120.811 186.836,116.687 190.416,112.692 190.912,112.671 191.801,112.145 191.892,111.902 191.968,111.7 191.35,112.039 191.627,111.632 192.408,110.718 193.275,109.895 193.922,108.844 199.035,108.623 205.934,108.909 211.164,108.719 212.435,108.673 213.746,108.602 214.771,108.883 215.913,108.481 216.852,109.045 218.378,108.913 219.776,108.79 221.584,108.854 222.921,108.817 227.672,108.685 232.964,109.064 237.356,108.802 236.878,111.257 237.075,113.53 236.359,116.144 236.242,116.566 235.176,119.48 234.991,119.875 234.812,120.259 233.885,121.731 233.637,122.136 233.343,122.615 233.231,123.138 232.957,123.6 232.235,124.825 231.333,126.245 230.254,127.321 229.954,127.619 229.378,128.325 229.311,128.383 229.11,128.546 226.399,131.396 224.196,132.616 223.05,133.25 221.831,133.777 220.708,134.459 220.342,134.68 220.125,135.026 219.765,135.252 218.91,135.793 217.734,136.029 216.682,136.429 215.997,136.689 215.398,137.157 214.803,137.35 214.269,137.523 213.931,137.552 212.927,138.002 209.365,138.292 204.453,139.42 200.222,139.234 199.335,139.195 198.486,139.12 197.618,139.114 196.954,139.11 196.29,139.138 195.679,139.063 195.044,138.983 194.461,138.836 194.077,138.916 193.895,138.953 193.442,138.248 193.618,138.864 193.335,138.568 193.028,138.665 192.341,138.767 192.069,138.107 190.925,138.304 190.478,137.816 190.166,137.814 188.638,137.366 187.869,137.238 187.285,137.092 187.371,137.307 186.875,137.251 185.181,136.746 180.094,134.422 179.154,133.446 177.739,133.512 177.506,132.416 176.357,132.22 175.687,131.377 174.851,130.698 173.836,130.195 173.259,129.57 171.547,128.162 171.584,127.771 169.611,126.973 166.189,121.5 165.363,120.637 164.619,118.676 162.588,114.144 162.752,112.998 162.532,112.948 163.092,112.508 162.882,111.978 Z M 213.83,109.41 C 213.802,109.174 213.969,108.742 213.566,108.874 213.516,109.174 213.586,109.374 213.826,109.414 Z M 214.34,115.19 C 214.595,115.249 214.578,115.574 215.004,115.463 214.966,113.729 215.877,111.365 215.733,109.462 215.598,109.461 215.704,109.71 215.569,109.708 M 213.419,109.798 C 213.337,110.276 213.812,110.207 214.216,110.205 214.305,109.706 214.433,109.441 213.958,109.268 214.168,109.728 213.878,110.018 213.418,109.798 Z M 213.139,111.938 C 212.781,113.168 212.936,114.522 212.71,115.275 213.043,115.104 213.262,115.672 213.379,115.28 212.736,114.639 213.891,113.675 213.129,113.14 213.803,113.246 213.402,112.791 213.266,112.606 213.598,112.629 213.682,112.399 213.938,112.344 213.95,111.475 214.053,111.497 214.084,110.608 213.763,110.66 213.797,110.362 213.419,110.468 213.215,111.229 213.178,111.834 213.405,112.072 213.375,111.972 213.285,111.922 213.135,111.942 Z M 165.839,111.278 C 165.657,111.3 165.672,110.504 165.442,111.008 165.736,111.027 165.493,111.575 165.568,111.811 166.162,111.741 166.555,111.467 167.043,111.289 167.044,111.111 167.045,110.933 167.047,110.755 166.366,110.771 166.311,110.712 166.781,110.484 166.141,109.964 165.821,111.074 165.851,111.274 Z M 164.079,113.808 C 164.46,114.552 165.98,114.488 165.953,113.423 165.543,112.953 164.073,113.033 164.083,113.813 Z M 166.609,114.228 C 166.622,115.982 168.178,116.219 169.799,116.392 169.929,116.12 170.075,115.866 170.206,115.593 169.306,114.873 167.976,113.263 166.606,114.233 Z M 164.069,114.878 C 164.159,114.878 164.247,114.879 164.337,114.88 164.338,114.791 164.339,114.701 164.339,114.612 164.249,114.612 164.161,114.611 164.071,114.61 L 164.071,114.88 Z M 214.839,115.958 C 215.227,116.158 215.215,113.773 214.823,113.967 214.833,114.097 214.843,115.827 214.843,115.957 Z M 212.289,117.138 C 212.84,117.245 212.441,117.464 212.684,117.81 212.551,117.809 212.416,117.808 212.284,117.807 212.466,118.8 211.899,119.033 211.866,119.808 212.245,119.701 212.211,119.999 212.534,119.948 212.688,119.362 212.536,119.508 212.407,119.01 212.542,119.011 212.675,119.012 212.807,119.013 212.68,118.413 212.641,118.416 212.549,117.942 213.102,118.056 213.054,117.557 213.356,117.414 213.274,117.228 212.842,117.39 212.823,117.143 213.302,116.777 213.064,117.645 212.823,117.143 212.69,117.142 212.702,115.672 212.569,115.671 212.389,116.081 212.469,116.741 212.289,117.141 Z M 213.019,126.638 C 212.808,126.331 213.201,125.978 213.296,125.571 213.484,124.756 213.364,123.83 213.98,123.438 213.641,122.284 214.536,121.219 214.411,119.834 214.622,119.824 214.517,119.495 214.815,119.57 214.683,118.434 215.046,118.108 214.97,116.899 214.318,116.955 215.419,118.697 214.501,118.482 214.976,120.008 213.79,120.722 213.724,122.1 213.237,122.182 213.565,121.462 213.195,121.428 213.043,122.257 213.508,122.184 213.59,122.501 213.399,123.079 212.819,122.429 212.912,123.296 213.247,123.475 213.244,122.677 213.449,123.167 213.45,123.572 212.775,123.291 212.776,123.696 214.096,123.956 212.336,126.186 213.026,126.636 Z M 167.249,118.508 C 167.384,118.509 167.407,118.618 167.515,118.644 167.505,118.435 167.536,118.181 167.251,118.242 167.241,118.322 167.241,118.412 167.241,118.502 Z M 212.389,121.158 C 212.293,120.613 212.825,120.701 212.664,120.091 211.584,119.801 211.524,121.141 212.394,121.161 Z M 211.579,122.078 C 211.661,122.264 212.095,122.102 212.112,122.349 211.568,122.29 211.267,122.48 211.303,123.012 211.684,122.904 211.649,123.202 211.971,123.151 211.858,122.815 211.801,122.434 212.377,122.487 212.324,122.054 212.563,121.332 212.119,121.281 212.096,121.481 212.164,121.775 211.982,121.815 211.661,121.545 212.212,121.247 211.72,121.144 211.47,121.484 211.83,121.684 211.58,122.084 Z M 210.759,125.148 C 210.415,125.732 210.566,126.725 210.61,127.152 210.646,126.874 211.196,127.12 211.279,126.89 211.384,126.434 210.738,126.716 210.884,126.219 211.415,126.264 211.611,125.969 211.558,125.423 211.318,125.323 211.078,125.203 210.768,125.153 Z M 211.379,124.548 C 211.5,123.952 211.889,124.055 211.837,123.284 211.104,123.436 210.956,124.186 210.755,124.879 210.995,124.999 210.915,124.649 211.375,124.549 Z M 212.359,125.558 C 212.873,125.668 213.096,124.79 212.769,124.492 212.712,124.72 212.597,124.462 212.369,124.489 212.769,124.989 212.259,124.769 212.359,125.559 Z M 191.779,125.128 C 192.168,125.328 192.174,124.534 191.782,124.727 L 191.782,125.127 Z M 212.609,127.438 C 213.015,127.44 213.169,126.659 212.615,126.769 212.605,126.989 212.605,127.219 212.605,127.439 Z M 210.599,127.818 C 210.987,127.798 210.926,127.187 210.469,127.283 210.457,128.169 209.907,128.61 210.588,129.155 209.445,129.224 209.524,131.196 209.628,132.088 210.004,132.202 209.975,131.902 210.297,131.96 210.24,132.281 210.539,132.252 210.424,132.63 210.09,132.61 210.008,132.371 209.891,132.758 210.253,132.666 209.788,133.388 210.154,133.295 210.185,133.059 210.022,132.625 210.425,132.763 210.482,133.016 209.701,131.572 210.151,131.439 210.122,129.914 210.523,130.952 210.453,129.422 210.707,129.394 210.746,129.576 210.988,129.56 210.817,128.887 211.47,128.353 211.265,128.092 211.145,128.402 210.625,128.022 210.585,127.822 Z M 212.329,128.498 C 212.464,128.499 212.597,128.5 212.729,128.501 212.719,128.291 212.75,128.039 212.466,128.098 212.466,128.288 212.406,128.398 212.326,128.498 Z M 212.329,129.038 C 212.464,129.039 212.597,129.04 212.73,129.041 212.731,128.908 212.732,128.775 212.734,128.64 212.599,128.639 212.466,128.638 212.332,128.637 L 212.332,129.037 Z M 212.459,129.708 C 212.46,129.529 212.461,129.352 212.463,129.173 212.305,129.193 212.082,129.146 212.059,129.303 212.379,129.243 211.979,129.903 212.459,129.703 Z M 210.549,133.568 C 210.592,134.057 211,134.184 211.345,134.377 211.347,134.11 211.35,133.842 211.352,133.575 211.689,133.181 212.063,132.157 212.172,131.31 212.229,130.864 212.559,129.903 211.916,129.838 212.125,130.294 211.891,130.648 211.377,130.367 211.256,131 211.699,130.74 211.773,130.906 211.568,131.227 210.351,131.526 211.096,131.968 210.992,131.457 211.384,131.453 211.636,131.305 211.605,132.096 211.112,133.161 211.081,133.839 211.071,133.579 210.631,133.749 210.551,133.559 Z M 186.099,133.498 C 185.677,133.517 185.656,133.14 185.165,133.224 184.345,134.234 186.125,135.134 186.095,133.494 Z M 185.299,133.088 C 185.091,132.626 184.936,132.406 185.441,132.154 185.164,131.778 184.758,131.954 184.372,132.145 184.37,132.278 184.37,132.412 184.368,132.545 185.266,132.652 184.295,133.086 185.03,133.353 185.06,133.203 185.18,133.143 185.3,133.083 Z M 209.749,134.098 C 209.494,133.308 209.991,132.51 209.365,132.223 209.355,133.053 208.885,133.903 209.745,134.103 Z M 209.469,135.558 C 209.412,135.085 209.239,134.725 208.944,134.485 209.164,134.795 208.864,135.625 209.474,135.555 Z M 208.789,136.758 C 209.06,137.078 209.319,136.578 209.59,136.897 209.592,136.719 209.594,136.541 209.595,136.362 209.245,136.422 208.975,136.552 208.785,136.762 Z M 193.679,137.838 C 193.767,137.838 193.857,137.839 193.947,137.84 193.947,137.751 193.948,137.662 193.949,137.573 193.859,137.572 193.769,137.571 193.681,137.571 L 193.681,137.841 Z"
         id="path20" />
      <path
         inkscape:connector-curvature="0"
         d="M 80.42,129.82 C 80.608,130.207 81.28,129.508 81.354,130.094 80.515,130.472 80.222,129.89 79.621,129.68 79.828,129.1 79.83,128.836 79.899,128.345 80.686,128.022 81.192,127.414 81.914,127.025 81.997,126.6 81.667,126.609 81.919,126.358 82.42,126.238 82.555,125.748 83.126,125.699 83.095,125.309 83.432,125.291 83.4,124.9 84.927,123.846 85.822,122.151 87.573,121.325 87.533,121.016 87.598,120.812 87.712,120.658 89.662,119.542 90.595,117.391 92.559,116.288 93.238,115.406 93.75,114.354 94.851,113.9 95.448,113.093 95.763,111.506 97.272,112.05 97.228,113.065 98.343,112.94 98.19,114.062 98.502,114.064 98.814,114.067 99.126,114.07 99.18,114.35 99.031,114.424 98.988,114.604 99.744,114.933 100.239,115.523 100.847,116.089 102.039,117.203 103.451,118.588 104.557,119.995 105.106,120.072 105.335,120.466 105.753,120.673 105.947,120.99 106.033,120.924 105.882,121.343 106.55,121.216 106.533,121.763 107.081,121.754 107.273,122.404 107.741,122.784 108.408,122.968 108.384,123.3 108.615,123.383 108.67,123.637 110.741,125.311 112.636,127.158 114.371,129.163 113.011,129.667 111.586,129.137 110.36,129.397 110.337,129.283 110.413,129.271 110.495,129.265 109.474,129.794 107.191,129.201 105.55,129.358 105.089,129.402 104.713,129.607 104.344,129.615 104.042,129.623 103.852,129.377 103.545,129.341 103.121,129.293 102.483,129.569 101.939,129.595 100.69,129.656 99.451,129.526 98.198,129.43 96.96,129.337 95.756,129.677 94.589,129.668 93.156,129.658 91.087,129.351 89.244,129.49 87.319,129.636 84.921,129.648 82.827,129.839 82.397,129.952 82.647,129.397 82.296,129.433 81.571,129.743 80.949,129.553 80.419,129.833 Z M 102.4,122.12 C 102.808,122.22 102.889,121.987 103.204,121.992 103.194,121.412 102.384,121.602 102.404,122.122 Z M 100.64,125.31 C 100.729,125.31 100.818,125.311 100.908,125.312 100.909,125.224 100.909,125.134 100.91,125.045 100.82,125.045 100.731,125.044 100.642,125.043 L 100.642,125.313 Z M 112.51,128.22 C 112.599,128.221 112.688,128.221 112.777,128.222 112.987,127.895 112.326,127.826 112.377,128.085 112.457,128.095 112.527,128.105 112.507,128.225 Z M 100.74,128.79 C 100.701,128.481 101.127,128.644 101.144,128.393 100.774,128.203 100.344,128.623 100.744,128.793 Z M 83.629,129.72 C 83.952,129.403 83.192,129.37 83.229,129.583 83.227,129.573 83.68,129.663 83.629,129.723 Z"
         id="path22" />
      <path
         inkscape:connector-curvature="0"
         d="M 73.875,129.5 C 72.667,130.371 70.927,129.609 69.331,129.596 67.795,129.583 66.237,129.796 64.653,129.691 63.597,129.621 62.438,129.836 61.849,129.4 58.797,129.781 54.005,129.817 50.486,129.84 49.516,129.847 48.603,129.534 47.682,129.55 47.045,129.561 46.423,129.908 45.808,129.936 44.849,129.978 43.658,129.464 42.999,130.18 41.641,129.843 40.294,130.293 38.723,130.145 38.745,129.813 38.753,129.497 38.46,129.475 39.064,129.145 39.067,128.204 40.074,128.285 40.143,127.783 40.117,127.719 40.35,127.218 41.401,126.536 42.19,125.586 42.911,124.567 43.089,124.568 43.268,124.57 43.446,124.571 43.688,123.964 44.141,123.57 44.792,123.379 44.954,123.094 44.943,122.634 45.201,122.448 45.784,122.187 46.133,121.688 46.813,121.525 47.066,121.291 46.657,121.133 46.952,120.858 48.853,119.213 50.299,117.913 51.803,115.954 53.674,115.115 54.266,112.978 55.846,111.845 56.883,111.664 56.708,112.675 57.443,112.793 58.405,114.497 59.561,116.012 61.284,116.968 61.393,117.123 61.457,117.327 61.411,117.637 62.39,118.177 63.201,118.882 63.799,119.795 64.659,120.061 65.259,120.768 65.924,121.416 66.338,121.819 66.868,122.195 66.983,122.761 67.34,122.94 67.691,123.126 68.048,123.304 68.4,123.993 69.081,124.49 69.901,125.325 70.077,125.503 70.339,125.617 70.432,125.73 70.625,125.96 70.614,126.328 70.828,126.535 71.811,127.495 73.552,127.965 73.875,129.495 Z M 55.294,113.85 C 55.885,113.867 56.26,113.664 56.501,113.326 55.96,113.356 55.458,113.426 55.294,113.846 Z M 56.61,116.4 C 56.845,116.643 57.134,116.25 57.414,116.14 57.233,116.097 57.16,115.948 56.88,116.002 56.918,116.262 56.697,116.262 56.61,116.402 Z M 51.662,116.76 C 51.861,116.738 52.155,116.811 52.198,116.63 52.021,116.45 51.702,116.45 51.662,116.76 Z M 66.97,124.1 C 67.059,124.101 67.148,124.101 67.237,124.102 67.238,124.013 67.238,123.924 67.239,123.835 67.15,123.834 67.061,123.834 66.972,123.833 66.971,123.923 66.971,124.013 66.97,124.103 Z M 63.343,126.34 C 63.386,125.988 63.161,125.9 62.812,125.936 62.817,126.296 63.112,126.576 63.343,126.336 Z M 40.884,127.22 C 41.188,127.261 41.386,127.193 41.421,126.957 41.265,126.787 40.866,126.847 40.884,127.217 Z M 70.681,127.74 C 70.986,127.78 71.184,127.713 71.218,127.477 70.969,127.487 70.771,127.557 70.681,127.737 Z M 46.08,129.27 C 45.225,129.11 45.782,129.68 46.08,129.27 Z"
         id="path24" />
      <path
         inkscape:connector-curvature="0"
         d="M 49.11,134.51 C 53.506,134.106 58.483,134.405 63.412,134.227 63.622,134.647 63.74,134.828 63.806,135.165 63.886,135.581 63.645,135.765 63.664,136.101 63.689,136.523 63.917,136.997 63.919,137.573 63.923,138.647 63.723,139.852 63.757,141.046 63.797,142.452 64.047,143.922 63.988,145.325 63.978,145.561 63.711,145.888 63.715,146.124 63.72,146.425 63.954,146.767 63.974,147.062 63.997,147.403 63.813,147.684 63.832,147.997 63.848,148.24 64.058,148.4 64.094,148.666 64.233,149.684 63.852,150.844 63.8,151.872 63.716,153.549 64.131,155.264 64.159,156.953 64.212,160.109 63.845,163.37 64.347,166.577 63.479,167.881 64.639,169.899 64.038,171.654 63.649,171.781 62.584,171.993 62.57,171.375 61.058,171.87 58.802,171.832 56.686,171.861 54.158,171.895 51.612,171.97 49.471,171.802 49.245,169.04 49.339,166.504 49.264,164.449 49.238,163.736 49.267,163.126 49.279,162.578 49.298,161.766 49.457,160.096 49.044,158.701 49.275,158.442 49.283,157.956 49.454,157.635 48.926,154.539 49.314,151.141 49.269,147.612 49.261,146.993 49.024,146.382 49.017,145.738 49.014,145.446 49.254,145.474 49.288,145.34 49.353,145.086 49.312,144.103 49.303,143.602 49.272,141.901 48.842,140.195 49.344,138.658 48.988,138.079 49.12,137.09 49.362,136.519 48.802,136.519 49.139,135.069 49.11,134.499 Z M 54.18,135.49 C 53.733,135.08 53.771,135.98 54.18,135.49 Z M 61.479,141.69 C 61.569,141.691 61.658,141.691 61.747,141.692 61.748,141.602 61.748,141.514 61.749,141.424 61.66,141.423 61.571,141.423 61.481,141.422 61.48,141.522 61.479,141.602 61.479,141.692 Z M 62.281,141.7 C 62.586,141.74 62.783,141.672 62.818,141.437 62.514,141.397 62.315,141.467 62.281,141.697 Z"
         id="path26" />
      <path
         inkscape:connector-curvature="0"
         d="M 104.57,134.16 C 104.815,136.503 104.472,138.7 104.514,140.975 104.522,141.384 104.733,141.766 104.771,142.18 104.93,143.944 104.512,145.789 104.592,147.659 104.627,148.5 104.782,149.154 104.705,150.198 104.637,151.11 104.672,152.158 104.681,153.138 104.692,154.5 104.462,155.863 104.647,157.28 104.662,157.398 104.908,157.511 104.911,157.684 104.918,158.171 104.643,158.684 104.632,159.151 104.616,159.81 104.873,160.412 104.884,161.024 104.893,161.614 104.722,162.177 104.736,162.76 104.745,163.173 104.965,163.568 104.993,163.965 105.04,164.658 104.719,165.428 104.708,166.101 104.682,167.749 105.128,169.42 104.667,171.044 103.07,171.115 101.037,171.014 98.919,171.131 97.466,171.212 95.997,170.983 94.509,171.095 93.079,171.203 91.64,171.66 90.365,171.195 90.087,168.668 90.313,165.993 90.297,163.31 90.264,157.941 89.969,152.567 90.163,147.138 90.181,146.652 90.184,146.157 90.175,145.668 90.171,145.438 89.887,145.367 89.912,145.132 89.938,144.882 90.193,144.843 90.183,144.599 90.168,144.227 89.925,143.826 89.926,143.394 89.927,142.879 90.186,142.286 90.206,141.792 90.233,141.102 89.975,140.478 89.955,139.786 89.902,137.943 90.138,136.028 90.001,134.173 94.387,134.393 99.791,133.873 104.577,134.173 Z M 97.168,140.79 C 97.393,140.613 98.019,140.845 97.973,140.395 97.565,140.375 97.292,140.505 97.168,140.785 Z"
         id="path28" />
      <path
         inkscape:connector-curvature="0"
         d="M 219,178.67 C 219.033,179.105 218.664,179.121 218.324,179.467 215.213,178.999 211.473,179.717 207.635,179.379 206.428,179.273 204.582,178.897 203.088,179.609 201.974,179.085 200.895,179.677 199.615,179.714 197.793,179.767 196.053,179.449 194.269,179.536 192.887,179.603 191.498,179.74 190.124,179.769 188.059,179.812 185.804,179.989 183.439,179.981 181.269,179.974 178.825,179.945 176.622,180.192 174.454,180.434 171.78,180.189 169.673,180.268 167.545,180.347 165.372,180.57 163.26,180.081 163.087,177.981 163.216,175.581 163.447,173.668 170.203,173.468 177.551,173.586 184.965,173.311 187.879,173.203 190.885,172.931 193.52,173.114 194.684,173.196 195.854,173.845 196.596,172.873 196.746,171.474 196.815,169.681 196.768,168.331 197.848,167.312 196.822,165.848 197.201,164.459 196.473,163.891 196.915,162.766 196.821,161.783 196.796,161.508 196.557,161.328 196.56,161.113 196.568,160.684 196.803,160.228 196.838,159.778 196.945,158.382 196.41,157.388 197.666,156.578 197.666,156.18 197.036,156.402 196.867,156.17 197.359,155.048 196.346,154.024 196.355,153.359 196.94,152.935 196.396,153.921 197.019,153.9 196.994,153.223 196.749,152.28 197.704,151.9 197.627,151.401 197.428,151.023 197.18,150.693 196.836,150.428 196.557,150.899 196.381,150.284 195.999,149.735 196.852,150.14 196.658,149.218 196.347,148.487 195.98,149.907 195.858,148.944 195.828,148.203 196.015,148.866 196.393,148.816 197.134,147.527 195.812,145.147 196.964,144.277 199.048,144.639 201.577,144.331 203.78,144.333 204.099,146.264 203.763,148.181 204.001,150.081 204.032,150.336 204.251,150.735 204.26,151.019 204.277,151.57 204.006,152.192 203.979,152.755 203.851,155.32 204.303,158.094 204.445,161.045 204.506,162.349 204.515,163.65 204.412,164.92 204.373,165.383 204.155,165.813 204.135,166.254 204.092,167.175 204.389,168.138 204.244,169.062 204.072,170.158 203.154,171.655 203.943,173.335 205.475,173.163 207.021,173.219 208.888,173.11 211.784,172.94 214.744,172.402 217.579,172.512 218.124,172.533 218.641,172.762 219.18,172.793 220.831,172.891 222.483,172.6 224.126,172.566 224.517,172.559 225.052,172.746 225.462,172.712 225.831,172.68 226.235,172.386 226.669,172.321 228.078,172.106 230.359,172.483 232.548,172.503 235.065,172.525 237.102,171.43 238.021,173.216 237.75,175.048 238.325,177.19 237.442,178.557 237.213,178.549 237.094,178.653 237.039,178.82 234.97,178.913 232.761,178.862 230.491,178.9 228.751,178.929 226.943,179.274 225.277,179.125 224.388,179.044 223.631,178.722 222.74,178.836 221.92,178.966 219.66,179.496 218.98,178.696 Z M 197.15,154.57 C 197.07,155.57 198.601,155.969 199.281,155.39 199.284,155.123 199.286,154.856 199.289,154.588 198.559,153.938 197.859,153.948 197.149,154.568 Z"
         id="path30" />
      <path
         inkscape:connector-curvature="0"
         d="M 115.18,176.48 C 115.068,177.094 115.055,177.91 115.028,178.75 115.004,179.467 115.252,180.403 114.744,180.752 115.13,181.137 115.119,182.386 114.596,182.622 114.383,182.948 113.822,182.873 113.524,182.881 111.842,182.924 109.71,182.837 107.51,182.832 106.765,182.831 105.976,183.045 105.236,183.08 104.246,183.128 103.258,182.885 102.297,182.922 101.32,182.961 100.381,183.176 99.356,183.165 98.379,183.154 97.29,182.961 96.284,183.006 95.677,183.033 95.036,183.253 94.41,183.258 93.375,183.266 92.378,183.058 91.338,183.099 88.85,183.196 85.446,183.41 83.049,183.432 80.959,183.452 78.284,183.43 75.698,183.505 74.107,183.551 72.467,183.731 70.885,183.733 68.419,183.734 65.864,183.587 63.403,183.671 60.967,183.754 58.61,184.213 56.317,184.014 55.911,183.978 55.382,183.732 54.983,183.735 54.411,183.74 53.921,184.107 53.376,184.123 52.848,184.138 52.287,183.871 51.776,183.842 47.411,183.597 43.055,184.346 38.812,183.87 38.645,183.177 39.014,182.49 38.965,181.6 38.928,180.968 38.579,180.35 38.579,179.725 38.58,179.223 38.929,178.906 38.992,178.392 39.047,177.931 38.472,177.449 39.002,177.189 44.554,177.099 51.134,177.293 57.311,177.074 58.665,177.025 60,177.275 61.319,177.24 61.934,177.223 62.528,177.031 63.193,176.988 64.328,176.916 65.58,177.123 66.668,177.017 67.16,176.97 67.668,176.672 68.141,176.629 69.284,176.523 70.662,176.686 71.883,176.66 74.114,176.612 76.492,176.887 79.099,176.72 80.323,176.64 81.546,176.327 82.709,176.349 83.126,176.356 83.512,176.599 83.911,176.625 84.352,176.655 84.931,176.373 85.383,176.371 87.115,176.361 88.967,176.653 90.726,176.682 92.685,176.715 94.652,176.5 96.608,176.464 99.009,176.418 101.472,176.433 103.825,176.39 105.869,176.351 107.879,176.568 109.841,176.172 111.061,175.902 113.641,175.892 115.161,176.462 Z M 51.277,179.56 C 51.106,179.551 51.094,179.388 50.878,179.422 50.668,179.752 51.328,179.822 51.277,179.562 Z"
         id="path32" />
    </g>
  </g>
</svg>
